<?xml version="1.0" encoding="UTF-8"?><svg id="Ebene_1" xmlns="http://www.w3.org/2000/svg" viewBox="0 0 75.07 32.69"><defs><style>.cls-1{fill:#fff;}</style></defs><path class="cls-1" d="m55.79.39s-3.36-1.66-5.7,1.84c-.23.34-2.15,2.84-2.15,3.85,0,1.16.94,2.1,2.11,2.1.43,0,1.25-.13,2.04-1.1,1.57-2.2,2.44-2.3,3.7-1.6.36.2,6.35,3.62,10.1,5.76H9.18c3.75-2.14,9.74-5.56,10.1-5.76,1.26-.7,2.13-.6,3.7,1.6.79.97,1.61,1.1,2.04,1.1,1.17,0,2.11-.94,2.11-2.1,0-1.01-1.92-3.51-2.15-3.85-2.34-3.5-5.7-1.84-5.7-1.84L0,11.24v11.92h3.32v3.71c0,3.21,2.61,5.82,5.82,5.82h19.15c4.12,0,7.46-3.34,7.46-7.46,0-.04.01-.07.04-.1.1-.87.84-1.55,1.75-1.55s1.64.68,1.74,1.55c.03.03.04.06.04.1,0,2.06.84,3.92,2.18,5.28,1.36,1.34,3.22,2.18,5.28,2.18h19.14c3.22,0,5.83-2.61,5.83-5.83v-3.7h3.32v-11.92L55.79.39Zm-27.62,25.77c0,1.35-1.1,2.45-2.45,2.45h-14.76c-1.35,0-2.45-1.1-2.45-2.45v-8.38c0-1.36,1.1-2.45,2.45-2.45h14.77c1.35,0,2.44,1.09,2.44,2.45v8.38Zm38.39,0c0,1.35-1.1,2.45-2.45,2.45h-14.77c-1.35,0-2.44-1.09-2.44-2.44v-8.39c0-1.36,1.09-2.45,2.44-2.45h14.77c1.35,0,2.45,1.09,2.45,2.45v8.38Z"/></svg>