<?xml version="1.0" encoding="utf-8"?>
<!-- Generator: Adobe Illustrator 27.6.1, SVG Export Plug-In . SVG Version: 6.00 Build 0)  -->
<svg version="1.1" id="Ebene_1" xmlns="http://www.w3.org/2000/svg" xmlns:xlink="http://www.w3.org/1999/xlink" x="0px" y="0px"
	 viewBox="0 0 75.1 32.7" style="enable-background:new 0 0 75.1 32.7;" xml:space="preserve">
<path d="M55.8,0.4c0,0-3.4-1.7-5.7,1.8c-0.2,0.3-2.2,2.8-2.2,3.8c0,1.2,0.9,2.1,2.1,2.1c0.4,0,1.2-0.1,2-1.1
	c1.6-2.2,2.4-2.3,3.7-1.6c0.4,0.2,6.3,3.6,10.1,5.8H9.2c3.8-2.1,9.7-5.6,10.1-5.8c1.3-0.7,2.1-0.6,3.7,1.6c0.8,1,1.6,1.1,2,1.1
	c1.2,0,2.1-0.9,2.1-2.1c0-1-1.9-3.5-2.1-3.8c-2.3-3.5-5.7-1.8-5.7-1.8L0,11.2v11.9h3.3v3.7c0,3.2,2.6,5.8,5.8,5.8h19.2
	c4.1,0,7.5-3.3,7.5-7.5c0,0,0-0.1,0-0.1c0.1-0.9,0.8-1.5,1.8-1.5s1.6,0.7,1.7,1.5c0,0,0,0.1,0,0.1c0,2.1,0.8,3.9,2.2,5.3
	c1.4,1.3,3.2,2.2,5.3,2.2h19.1c3.2,0,5.8-2.6,5.8-5.8v-3.7h3.3V11.2L55.8,0.4z M28.2,26.2c0,1.4-1.1,2.5-2.5,2.5H11
	c-1.4,0-2.4-1.1-2.4-2.5v-8.4c0-1.4,1.1-2.4,2.4-2.4h14.8c1.4,0,2.4,1.1,2.4,2.4V26.2z M66.6,26.2c0,1.4-1.1,2.5-2.4,2.5H49.3
	c-1.3,0-2.4-1.1-2.4-2.4v-8.4c0-1.4,1.1-2.4,2.4-2.4h14.8c1.3,0,2.4,1.1,2.4,2.4V26.2z"/>
</svg>
